<svg version="1.1" id="Layer_1" xmlns="http://www.w3.org/2000/svg" xmlns:xlink="http://www.w3.org/1999/xlink" x="0px" y="0px"
	 width="100%" viewBox="0 0 1600 421" enable-background="new 0 0 1600 421" xml:space="preserve">
<path fill="#000000" opacity="1.000000" stroke="none" 
	d="
M1.000000,271.000000 
	C1.000000,181.027054 1.000000,91.054108 1.000000,1.000000 
	C394.021454,1.000000 787.042908,1.000000 1180.873779,1.351315 
	C1180.001343,2.134950 1178.332642,2.876503 1176.635498,2.948917 
	C1166.379883,3.386504 1156.095337,3.355806 1145.863037,4.082289 
	C1131.304321,5.115942 1116.784058,6.685219 1102.244385,7.993520 
	C1090.805542,9.022804 1079.324951,9.695004 1067.929932,11.078525 
	C1051.099121,13.122026 1034.302124,15.484984 1017.538330,18.027004 
	C999.050171,20.830532 980.550415,23.639915 962.174866,27.082626 
	C938.918457,31.439760 915.543274,35.505909 892.648865,41.373730 
	C856.199219,50.715771 819.950256,60.930546 783.918152,71.778496 
	C762.766296,78.146530 742.187012,86.422241 721.370300,93.896141 
	C686.796509,106.309296 653.094604,120.853935 620.207520,137.132980 
	C594.788147,149.715561 570.177246,163.921051 544.951416,176.908691 
	C527.228943,186.033173 509.321136,194.883728 491.054413,202.843033 
	C468.558838,212.644974 445.898529,222.227264 422.774170,230.387863 
	C393.553802,240.699738 364.061127,250.460037 334.185913,258.629852 
	C308.134460,265.754028 281.453949,270.667389 254.926834,275.929993 
	C238.343277,279.219971 221.584732,281.802612 204.801102,283.855835 
	C190.611542,285.591705 176.273010,286.109894 161.567902,287.093262 
	C154.086349,287.735199 147.037323,288.450836 139.608536,288.964935 
	C133.423279,287.219910 123.729309,287.716370 119.740540,290.257019 
	C121.753044,290.984131 123.148933,291.892883 124.566460,291.927979 
	C129.699677,292.055145 134.840164,291.888977 140.439819,291.907227 
	C147.934616,291.598663 154.967499,291.216339 162.455841,290.907593 
	C171.262238,290.322754 179.631317,289.838074 187.960083,288.967560 
	C202.591370,287.438232 217.271729,286.146729 231.796188,283.885986 
	C249.908218,281.066864 267.877258,277.334625 285.918671,274.055298 
	C316.848083,268.433319 346.989014,259.686432 376.936127,250.383789 
	C397.581512,243.970596 418.011810,236.728333 438.158295,228.881180 
	C462.079834,219.563644 486.066437,210.179840 509.164185,199.040146 
	C537.621216,185.315720 564.914917,169.195633 593.222168,155.139435 
	C621.052368,141.320068 649.244019,128.141022 677.793091,115.882858 
	C703.734375,104.744438 730.145630,94.592308 756.750366,85.132095 
	C798.626648,70.241531 841.218262,57.595989 884.595886,47.743820 
	C900.535767,44.123470 916.463928,40.444290 932.447571,37.026428 
	C947.189392,33.874119 961.955872,30.800577 976.789734,28.126072 
	C991.518188,25.470572 1006.318420,23.174843 1021.135742,21.062300 
	C1032.619629,19.424995 1044.183228,18.352865 1055.702759,16.957319 
	C1068.996094,15.346870 1082.262329,13.494472 1095.573242,12.051434 
	C1106.990967,10.813643 1118.441772,9.799657 1129.901733,9.053251 
	C1148.002319,7.874346 1166.116943,6.873859 1184.236816,6.043015 
	C1197.481812,5.435697 1210.744873,5.222369 1224.453003,4.907058 
	C1228.270752,4.931587 1231.635254,4.882478 1235.463379,4.907205 
	C1244.951416,4.931787 1253.975952,4.882533 1263.464111,4.907061 
	C1376.919434,6.121175 1488.667236,18.088411 1599.164673,43.418373 
	C1598.348022,41.681519 1597.260376,40.394768 1595.921143,40.029263 
	C1588.134277,37.903996 1580.364990,35.589325 1572.447632,34.089199 
	C1548.381104,29.529264 1524.289795,25.071383 1500.130859,21.036367 
	C1480.069092,17.685648 1459.930054,14.747924 1439.765015,12.081697 
	C1424.204346,10.024248 1408.575562,8.367434 1392.931519,7.087970 
	C1376.195435,5.719200 1359.407715,4.975765 1342.639526,4.011610 
	C1335.555786,3.604303 1328.460205,3.392442 1321.381958,2.913288 
	C1320.548584,2.856878 1319.792114,1.665335 1319.000000,1.000003 
	C1412.899292,1.000000 1506.798462,1.000000 1601.000000,1.000000 
	C1601.000000,42.354275 1601.000000,83.709282 1600.590210,125.531693 
	C1598.772095,125.665825 1597.368652,125.310280 1595.954712,125.002625 
	C1577.609375,121.011093 1559.325195,116.701683 1540.897217,113.137276 
	C1524.626709,109.990189 1508.210205,107.578133 1491.828857,105.030334 
	C1481.841309,103.476974 1471.800537,102.264145 1461.779663,100.928505 
	C1449.332764,99.269493 1436.899048,97.489677 1424.426147,96.053627 
	C1416.111816,95.096375 1407.734985,94.693398 1399.393066,93.962349 
	C1384.691040,92.673920 1370.005981,91.171745 1355.291748,90.048538 
	C1343.460938,89.145416 1331.605103,88.412346 1319.746704,88.065582 
	C1302.170898,87.551598 1284.583130,87.446045 1266.536865,87.092850 
	C1256.715576,87.068275 1247.357910,87.117485 1237.669312,87.094177 
	C1236.892212,87.070084 1236.446045,87.118507 1235.575806,87.093330 
	C1233.434448,87.068771 1231.717041,87.117805 1229.538086,87.092995 
	C1223.151611,87.345970 1217.229614,87.749863 1211.300903,87.982399 
	C1201.213013,88.378052 1191.115967,88.564690 1181.031372,89.025085 
	C1168.843262,89.581512 1156.656494,90.218109 1144.483032,91.028603 
	C1131.533203,91.890778 1118.587646,92.865677 1105.662109,94.033684 
	C1092.785278,95.197296 1079.918335,96.514618 1067.078613,98.031822 
	C1051.525024,99.869705 1035.969238,101.749611 1020.479004,104.046585 
	C1001.987854,106.788544 983.499084,109.639404 965.129333,113.083504 
	C941.880310,117.442413 918.514343,121.518173 895.626526,127.384804 
	C859.187073,136.724991 822.946838,146.931686 786.924133,157.774323 
	C765.777954,164.139221 745.200745,172.402634 724.393799,179.884918 
	C689.836853,192.311783 656.127991,206.814255 623.263000,223.120377 
	C597.861572,235.723465 573.292480,249.994904 548.023682,262.877930 
	C527.390320,273.397644 506.538086,283.581879 485.290344,292.776825 
	C463.381958,302.257629 441.043671,310.820801 418.585754,318.933594 
	C398.401001,326.225220 377.967377,332.950623 357.336151,338.850952 
	C334.038971,345.513672 310.471222,351.284454 286.880219,356.845276 
	C272.839203,360.154999 258.583038,362.675659 244.320694,364.887665 
	C230.450714,367.038818 216.474533,368.602844 202.499420,369.953094 
	C185.827652,371.563934 169.126984,373.375122 152.403763,373.841278 
	C124.819817,374.610199 97.204689,374.265045 69.832634,369.972260 
	C56.198357,367.833954 42.587955,365.515442 29.019808,362.993103 
	C19.632904,361.248077 10.336725,359.014984 1.000001,357.000000 
	C1.000000,343.978577 1.000000,330.957123 1.398403,317.475037 
	C14.352921,320.009491 26.814821,323.514771 39.491695,325.856049 
	C52.129219,328.189972 64.946442,329.742035 77.750328,330.933807 
	C92.462524,332.303284 107.246574,332.900665 122.461960,333.907135 
	C128.282990,333.931610 133.641479,333.882324 139.432724,333.906738 
	C141.910156,333.931335 143.954849,333.882263 146.423645,333.906799 
	C149.245712,333.691467 151.643677,333.402496 154.410583,333.062866 
	C155.519760,332.952606 156.259979,332.893036 157.396133,332.907166 
	C158.861359,332.931763 159.930649,332.882690 161.371384,332.907043 
	C162.495163,332.931549 163.247498,332.882568 164.449295,332.907257 
	C172.581680,332.322632 180.278992,331.798615 187.944458,330.977203 
	C202.572235,329.409821 217.255615,328.146759 231.780334,325.886139 
	C249.892609,323.067139 267.861938,319.335144 285.903656,316.056152 
	C316.833771,310.434845 346.976837,301.692780 376.924896,292.391022 
	C397.570679,285.978546 417.999054,278.729675 438.145966,270.882477 
	C462.067902,261.564972 486.057098,252.186432 509.155029,241.046738 
	C537.612549,227.322189 564.904785,211.197861 593.212341,197.141159 
	C621.042664,183.321426 649.236084,170.145279 677.785522,157.887054 
	C703.727356,146.748474 730.137756,136.592575 756.743225,127.133057 
	C798.620544,112.243637 841.211975,99.594978 884.591248,89.746010 
	C900.531555,86.126854 916.459412,82.445045 932.443115,79.026794 
	C947.185059,75.874130 961.951904,72.800842 976.785950,70.126289 
	C991.514648,67.470718 1006.315125,65.174911 1021.132690,63.062347 
	C1032.616699,61.425049 1044.180542,60.352993 1055.700195,58.957439 
	C1068.993774,57.346958 1082.260132,55.494499 1095.571411,54.051418 
	C1106.989258,52.813610 1118.440186,51.799671 1129.900269,51.053272 
	C1148.001099,49.874374 1166.116089,48.873859 1184.236206,48.043011 
	C1197.481445,47.435688 1210.744629,47.222370 1224.453003,46.907059 
	C1228.270752,46.931591 1231.635254,46.882481 1235.463379,46.907211 
	C1244.951416,46.931793 1253.975952,46.882538 1263.464111,46.907066 
	C1376.919312,48.121338 1488.672363,60.091572 1598.798096,86.287125 
	C1599.046997,85.513962 1599.296021,84.740807 1599.544922,83.967644 
	C1597.368530,82.978470 1595.284546,81.576630 1593.001099,81.065407 
	C1574.676636,76.963020 1556.377075,72.704643 1537.945068,69.140144 
	C1521.671387,65.993034 1505.252686,63.577301 1488.868042,61.031376 
	C1478.878174,59.479095 1468.833008,58.279476 1458.809937,56.943306 
	C1446.361450,55.283821 1433.927490,53.493557 1421.453369,52.054173 
	C1413.137939,51.094662 1404.759277,50.694691 1396.416016,49.963589 
	C1381.711304,48.675045 1367.023926,47.172066 1352.307007,46.048584 
	C1340.474243,45.145279 1328.616211,44.412395 1316.755859,44.065620 
	C1299.177002,43.551636 1281.586182,43.446060 1263.536865,43.092842 
	C1253.715576,43.068272 1244.357910,43.117481 1234.669312,43.094189 
	C1233.892212,43.070099 1233.446045,43.118515 1232.575806,43.093327 
	C1230.434448,43.068764 1228.717041,43.117802 1226.538086,43.093002 
	C1215.151367,43.346096 1204.225830,43.662392 1193.301147,44.003052 
	C1183.042358,44.322937 1172.784302,44.668697 1162.526001,45.002338 
	C1162.192993,45.013165 1161.858398,44.998631 1161.526855,45.024887 
	C1144.823608,46.347775 1128.120850,47.677990 1111.417358,48.997860 
	C1102.735718,49.683865 1094.026733,50.119064 1085.376465,51.083279 
	C1072.400513,52.529667 1059.465210,54.340683 1046.512817,55.998440 
	C1033.401855,57.676495 1020.248230,59.080887 1007.191406,61.108337 
	C992.109375,63.450260 977.069153,66.119392 962.088989,69.046646 
	C938.869385,73.583923 915.476196,77.526482 892.589172,83.405281 
	C855.682678,92.885155 818.977173,103.233109 782.483765,114.202477 
	C761.795105,120.421150 741.693542,128.595718 721.335388,135.911133 
	C686.770447,148.331528 653.076721,162.875839 620.185547,179.132736 
	C594.620422,191.768616 569.987671,206.289032 544.437927,218.958282 
	C516.447998,232.837540 488.354492,246.720139 459.434784,258.453766 
	C429.409271,270.636017 398.535858,280.854187 367.662903,290.779388 
	C345.693512,297.842163 323.236908,303.527252 300.770752,308.873352 
	C270.412231,316.097534 239.784180,322.138702 208.639069,324.984894 
	C192.454208,326.463898 176.243530,327.659424 160.048294,329.027924 
	C159.001617,329.116364 157.987625,329.591370 156.589539,329.937195 
	C155.480408,330.047333 154.740143,330.106842 153.575897,330.092621 
	C151.434296,330.068054 149.716660,330.117218 147.555481,330.092712 
	C144.407928,330.068024 141.703949,330.117096 138.538559,330.092468 
	C134.248123,330.012543 130.406860,329.826599 126.595970,330.086304 
	C125.017113,330.193878 123.503258,331.255249 121.569977,331.781799 
	C115.093956,330.787567 109.030861,329.667145 102.917030,329.046570 
	C88.427193,327.575745 73.779526,327.159576 59.441685,324.813507 
	C39.841557,321.606354 20.469706,317.004181 1.000001,313.000000 
	C1.000000,300.645233 1.000000,288.290466 1.398405,275.475037 
	C11.824094,277.486694 21.759901,280.459930 31.900484,282.311920 
	C46.455421,284.970123 61.147858,286.894928 75.806953,288.952118 
	C80.518204,289.613281 85.311943,289.674500 90.063835,290.060760 
	C98.537483,290.749542 107.007996,291.476868 115.832878,292.217682 
	C115.906471,291.080841 116.016090,290.459686 115.966255,289.851562 
	C115.917778,289.260040 115.705933,288.681885 115.534973,287.969238 
	C76.529907,286.800385 38.378456,281.473175 1.000000,271.000000 
z"/>
<path fill="#000000" opacity="1.000000" stroke="none" 
	d="
M1601.000000,174.000000 
	C1601.000000,256.646332 1601.000000,339.292633 1601.000000,422.000000 
	C1126.303955,422.000000 651.607910,422.000000 176.114594,421.651062 
	C176.163696,420.870697 176.982697,420.134033 177.860733,420.055267 
	C186.202148,419.306702 194.562332,418.762451 202.899857,417.976501 
	C212.511597,417.070435 222.192947,416.487854 231.689453,414.861786 
	C250.871033,411.577362 270.115997,408.386902 289.030029,403.878876 
	C319.513947,396.613312 349.937866,388.956329 380.028198,380.227325 
	C400.614655,374.255341 420.802338,366.720825 440.786469,358.908295 
	C465.444916,349.268433 490.175720,339.591095 514.018555,328.145325 
	C541.908630,314.756744 568.597839,298.885620 596.321167,285.125214 
	C624.002136,271.385803 652.040833,258.279877 680.436035,246.092255 
	C706.525818,234.894180 733.077332,224.666794 759.822510,215.124954 
	C801.678589,200.192017 844.273254,187.572479 887.645142,177.734146 
	C906.903015,173.365753 926.174866,169.042130 945.512268,165.046249 
	C959.972290,162.058243 974.535889,159.562851 989.075073,156.969437 
	C1000.752625,154.886475 1012.429565,152.754410 1024.167725,151.069534 
	C1035.648071,149.421661 1047.210449,148.351425 1058.728149,146.955917 
	C1072.019531,145.345474 1085.283691,143.494034 1098.592651,142.051254 
	C1110.008667,140.813705 1121.457642,139.799530 1132.915894,139.053146 
	C1151.013794,137.874268 1169.125610,136.873810 1187.242798,136.042969 
	C1200.485840,135.435669 1213.746826,135.222351 1227.453003,134.907043 
	C1231.270752,134.931564 1234.635254,134.882462 1238.463379,134.907196 
	C1247.951416,134.931778 1256.975952,134.882538 1266.464111,134.907059 
	C1277.513184,135.319763 1288.100098,135.623306 1298.684326,136.005539 
	C1316.359253,136.643875 1334.036499,137.244629 1351.705078,138.031906 
	C1362.890381,138.530289 1374.086426,139.064728 1385.233276,140.073639 
	C1400.705322,141.474045 1416.137573,143.316666 1431.583252,145.004333 
	C1443.604858,146.317871 1455.662109,147.393875 1467.629272,149.096527 
	C1484.365601,151.477692 1501.070068,154.131241 1517.718384,157.064957 
	C1532.715088,159.707642 1547.632935,162.809219 1562.557007,165.848801 
	C1575.392212,168.462952 1588.187256,171.275284 1601.000000,174.000000 
z"/>
<path fill="#000000" opacity="1.000000" stroke="none" 
	d="
M1.000003,401.000000 
	C1.000000,387.645782 1.000000,374.291534 1.394113,360.474945 
	C22.949091,367.013153 44.800224,370.960693 66.798462,373.863159 
	C82.237068,375.900116 97.822670,377.301270 113.381279,377.814545 
	C128.609528,378.316895 143.898544,377.601868 159.139084,376.928009 
	C173.760880,376.281494 188.364929,375.129333 202.957184,373.955780 
	C212.577621,373.182068 222.250381,372.485077 231.746429,370.858765 
	C250.926895,367.573883 269.998901,363.657867 289.123016,360.041351 
	C320.146515,354.174622 350.505096,345.710602 380.510071,336.038574 
	C400.784454,329.503143 420.991394,322.639313 440.829254,314.899078 
	C465.492523,305.276093 490.210022,295.568390 514.052063,284.122467 
	C541.940125,270.734222 568.634216,254.877808 596.356018,241.119064 
	C624.036316,227.380875 652.068970,214.264832 680.462769,202.077484 
	C706.550598,190.879929 733.106140,180.668701 759.847656,171.120972 
	C801.698730,156.178574 844.294006,143.570419 887.661682,133.726135 
	C906.918030,129.355072 926.190674,125.039253 945.527527,121.045044 
	C959.987000,118.058281 974.549622,115.561897 989.088013,112.968651 
	C1000.764954,110.885796 1012.441162,108.754242 1024.178711,107.069405 
	C1035.658447,105.421570 1047.220215,104.350914 1058.737305,102.955421 
	C1072.027954,101.345016 1085.291382,99.493881 1098.599609,98.051193 
	C1110.015015,96.813705 1121.463379,95.799538 1132.921021,95.053154 
	C1151.017822,93.874298 1169.128784,92.873833 1187.244873,92.043007 
	C1200.487183,91.435692 1213.747559,91.222359 1227.453003,90.907051 
	C1231.270752,90.931587 1234.635254,90.882477 1238.463379,90.907211 
	C1247.951416,90.931786 1256.975952,90.882530 1266.464111,90.907059 
	C1277.513184,91.319756 1288.100098,91.623291 1298.684326,92.005531 
	C1316.359253,92.643867 1334.036499,93.244606 1351.705078,94.031891 
	C1362.890259,94.530273 1374.086426,95.064713 1385.233154,96.073624 
	C1400.705200,97.474022 1416.137573,99.316658 1431.583252,101.004326 
	C1443.604858,102.317879 1455.661987,103.393890 1467.629150,105.096519 
	C1484.365479,107.477684 1501.070068,110.131256 1517.718384,113.064964 
	C1532.715088,115.707611 1547.632935,118.809189 1562.557007,121.848785 
	C1575.392212,124.462944 1588.187256,127.275276 1601.000000,130.000000 
	C1601.000000,143.020889 1601.000000,156.041794 1600.590210,169.530884 
	C1598.772095,169.665817 1597.368652,169.310287 1595.954712,169.002670 
	C1577.609253,165.011139 1559.325195,160.701675 1540.897095,157.137283 
	C1524.626587,153.990219 1508.210205,151.578140 1491.828857,149.030304 
	C1481.841309,147.476944 1471.800537,146.264145 1461.779663,144.928497 
	C1449.332764,143.269470 1436.899048,141.489670 1424.426147,140.053650 
	C1416.111816,139.096405 1407.734985,138.693405 1399.393066,137.962357 
	C1384.691040,136.673935 1370.005981,135.171738 1355.291748,134.048523 
	C1343.460938,133.145401 1331.605103,132.412354 1319.746704,132.065582 
	C1302.170898,131.551605 1284.583130,131.446045 1266.536865,131.092850 
	C1256.715576,131.068283 1247.357910,131.117477 1237.669312,131.094177 
	C1236.892212,131.070084 1236.446045,131.118500 1235.575806,131.093323 
	C1233.434448,131.068756 1231.717041,131.117798 1229.538086,131.092987 
	C1223.151489,131.345963 1217.229492,131.749908 1211.300659,131.982437 
	C1201.212769,132.378113 1191.115723,132.564682 1181.031128,133.025070 
	C1168.843018,133.581497 1156.656250,134.218094 1144.482788,135.028595 
	C1131.532837,135.890762 1118.587402,136.865662 1105.661743,138.033676 
	C1092.784912,139.197311 1079.918091,140.514664 1067.078369,142.031860 
	C1051.524780,143.869736 1035.968994,145.749634 1020.478760,148.046600 
	C1001.987610,150.788528 983.498840,153.639420 965.129089,157.083557 
	C941.880066,161.442490 918.514160,165.518234 895.626282,171.384888 
	C859.186890,180.725067 822.946655,190.931793 786.923950,201.774429 
	C765.777771,208.139297 745.200684,216.402756 724.393677,223.884995 
	C689.836731,236.311768 656.127869,250.814362 623.262878,267.120422 
	C597.861389,279.723480 573.292358,293.994934 548.023499,306.877960 
	C527.390137,317.397675 506.537933,327.581940 485.290222,336.776886 
	C463.381836,346.257721 441.043549,354.820892 418.585632,362.933655 
	C398.400879,370.225281 377.967255,376.950592 357.336029,382.850952 
	C334.038849,389.513702 310.471069,395.284393 286.880096,400.845245 
	C272.839081,404.154968 258.582947,406.675659 244.320602,408.887695 
	C230.450653,411.038849 216.474442,412.602814 202.499344,413.953064 
	C185.827591,415.563904 169.126923,417.375122 152.403717,417.841278 
	C124.819778,418.610199 97.204651,418.265045 69.832596,413.972260 
	C56.198330,411.833954 42.587952,409.515381 29.019814,406.993011 
	C19.632912,405.247986 10.336725,403.014954 1.000003,401.000000 
z"/>
<path fill="#FCD800" opacity="1.000000" stroke="none" 
	d="
M1.000003,401.375000 
	C10.336725,403.014954 19.632912,405.247986 29.019814,406.993011 
	C42.587952,409.515381 56.198330,411.833954 69.832596,413.972260 
	C97.204651,418.265045 124.819778,418.610199 152.403717,417.841278 
	C169.126923,417.375122 185.827591,415.563904 202.499344,413.953064 
	C216.474442,412.602814 230.450653,411.038849 244.320602,408.887695 
	C258.582947,406.675659 272.839081,404.154968 286.880096,400.845245 
	C310.471069,395.284393 334.038849,389.513702 357.336029,382.850952 
	C377.967255,376.950592 398.400879,370.225281 418.585632,362.933655 
	C441.043549,354.820892 463.381836,346.257721 485.290222,336.776886 
	C506.537933,327.581940 527.390137,317.397675 548.023499,306.877960 
	C573.292358,293.994934 597.861389,279.723480 623.262878,267.120422 
	C656.127869,250.814362 689.836731,236.311768 724.393677,223.884995 
	C745.200684,216.402756 765.777771,208.139297 786.923950,201.774429 
	C822.946655,190.931793 859.186890,180.725067 895.626282,171.384888 
	C918.514160,165.518234 941.880066,161.442490 965.129089,157.083557 
	C983.498840,153.639420 1001.987610,150.788528 1020.478760,148.046600 
	C1035.968994,145.749634 1051.524780,143.869736 1067.078369,142.031860 
	C1079.918091,140.514664 1092.784912,139.197311 1105.661743,138.033676 
	C1118.587402,136.865662 1131.532837,135.890762 1144.482788,135.028595 
	C1156.656250,134.218094 1168.843018,133.581497 1181.031128,133.025070 
	C1191.115723,132.564682 1201.212769,132.378113 1211.300659,131.982437 
	C1217.229492,131.749908 1223.151489,131.345963 1229.441040,131.386505 
	C1228.870361,132.780411 1227.935059,133.806915 1226.999878,134.833405 
	C1213.746826,135.222351 1200.485840,135.435669 1187.242798,136.042969 
	C1169.125610,136.873810 1151.013794,137.874268 1132.915894,139.053146 
	C1121.457642,139.799530 1110.008667,140.813705 1098.592651,142.051254 
	C1085.283691,143.494034 1072.019531,145.345474 1058.728149,146.955917 
	C1047.210449,148.351425 1035.648071,149.421661 1024.167725,151.069534 
	C1012.429565,152.754410 1000.752625,154.886475 989.075073,156.969437 
	C974.535889,159.562851 959.972290,162.058243 945.512268,165.046249 
	C926.174866,169.042130 906.903015,173.365753 887.645142,177.734146 
	C844.273254,187.572479 801.678589,200.192017 759.822510,215.124954 
	C733.077332,224.666794 706.525818,234.894180 680.436035,246.092255 
	C652.040833,258.279877 624.002136,271.385803 596.321167,285.125214 
	C568.597839,298.885620 541.908630,314.756744 514.018555,328.145325 
	C490.175720,339.591095 465.444916,349.268433 440.786469,358.908295 
	C420.802338,366.720825 400.614655,374.255341 380.028198,380.227325 
	C349.937866,388.956329 319.513947,396.613312 289.030029,403.878876 
	C270.115997,408.386902 250.871033,411.577362 231.689453,414.861786 
	C222.192947,416.487854 212.511597,417.070435 202.899857,417.976501 
	C194.562332,418.762451 186.202148,419.306702 177.860733,420.055267 
	C176.982697,420.134033 176.163696,420.870697 175.658661,421.651062 
	C148.979111,422.000000 121.958214,422.000000 94.809753,421.652374 
	C93.508781,420.870239 92.362396,420.163269 91.157745,420.043793 
	C80.272720,418.964233 69.216476,418.832947 58.520462,416.795807 
	C39.234215,413.122620 20.161758,408.326874 1.000002,404.000000 
	C1.000000,403.250000 1.000000,402.500000 1.000003,401.375000 
z"/>
<path fill="#FCD800" opacity="1.000000" stroke="none" 
	d="
M1226.999878,90.833420 
	C1213.747559,91.222359 1200.487183,91.435692 1187.244873,92.043007 
	C1169.128784,92.873833 1151.017822,93.874298 1132.921021,95.053154 
	C1121.463379,95.799538 1110.015015,96.813705 1098.599609,98.051193 
	C1085.291382,99.493881 1072.027954,101.345016 1058.737305,102.955421 
	C1047.220215,104.350914 1035.658447,105.421570 1024.178711,107.069405 
	C1012.441162,108.754242 1000.764954,110.885796 989.088013,112.968651 
	C974.549622,115.561897 959.987000,118.058281 945.527527,121.045044 
	C926.190674,125.039253 906.918030,129.355072 887.661682,133.726135 
	C844.294006,143.570419 801.698730,156.178574 759.847656,171.120972 
	C733.106140,180.668701 706.550598,190.879929 680.462769,202.077484 
	C652.068970,214.264832 624.036316,227.380875 596.356018,241.119064 
	C568.634216,254.877808 541.940125,270.734222 514.052063,284.122467 
	C490.210022,295.568390 465.492523,305.276093 440.829254,314.899078 
	C420.991394,322.639313 400.784454,329.503143 380.510071,336.038574 
	C350.505096,345.710602 320.146515,354.174622 289.123016,360.041351 
	C269.998901,363.657867 250.926895,367.573883 231.746429,370.858765 
	C222.250381,372.485077 212.577621,373.182068 202.957184,373.955780 
	C188.364929,375.129333 173.760880,376.281494 159.139084,376.928009 
	C143.898544,377.601868 128.609528,378.316895 113.381279,377.814545 
	C97.822670,377.301270 82.237068,375.900116 66.798462,373.863159 
	C44.800224,370.960693 22.949091,367.013153 1.394113,360.006287 
	C1.000000,359.250000 1.000000,358.500000 1.000001,357.375000 
	C10.336725,359.014984 19.632904,361.248077 29.019808,362.993103 
	C42.587955,365.515442 56.198357,367.833954 69.832634,369.972260 
	C97.204689,374.265045 124.819817,374.610199 152.403763,373.841278 
	C169.126984,373.375122 185.827652,371.563934 202.499420,369.953094 
	C216.474533,368.602844 230.450714,367.038818 244.320694,364.887665 
	C258.583038,362.675659 272.839203,360.154999 286.880219,356.845276 
	C310.471222,351.284454 334.038971,345.513672 357.336151,338.850952 
	C377.967377,332.950623 398.401001,326.225220 418.585754,318.933594 
	C441.043671,310.820801 463.381958,302.257629 485.290344,292.776825 
	C506.538086,283.581879 527.390320,273.397644 548.023682,262.877930 
	C573.292480,249.994904 597.861572,235.723465 623.263000,223.120377 
	C656.127991,206.814255 689.836853,192.311783 724.393799,179.884918 
	C745.200745,172.402634 765.777954,164.139221 786.924133,157.774323 
	C822.946838,146.931686 859.187073,136.724991 895.626526,127.384804 
	C918.514343,121.518173 941.880310,117.442413 965.129333,113.083504 
	C983.499084,109.639404 1001.987854,106.788544 1020.479004,104.046585 
	C1035.969238,101.749611 1051.525024,99.869705 1067.078613,98.031822 
	C1079.918335,96.514618 1092.785278,95.197296 1105.662109,94.033684 
	C1118.587646,92.865677 1131.533203,91.890778 1144.483032,91.028603 
	C1156.656494,90.218109 1168.843262,89.581512 1181.031372,89.025085 
	C1191.115967,88.564690 1201.213013,88.378052 1211.300903,87.982399 
	C1217.229614,87.749863 1223.151611,87.345970 1229.441040,87.386543 
	C1228.870361,88.780434 1227.935059,89.806923 1226.999878,90.833420 
z"/>
<path fill="#FCD800" opacity="1.000000" stroke="none" 
	d="
M1223.999878,4.833427 
	C1210.744873,5.222369 1197.481812,5.435697 1184.236816,6.043015 
	C1166.116943,6.873859 1148.002319,7.874346 1129.901733,9.053251 
	C1118.441772,9.799657 1106.990967,10.813643 1095.573242,12.051434 
	C1082.262329,13.494472 1068.996094,15.346870 1055.702759,16.957319 
	C1044.183228,18.352865 1032.619629,19.424995 1021.135742,21.062300 
	C1006.318420,23.174843 991.518188,25.470572 976.789734,28.126072 
	C961.955872,30.800577 947.189392,33.874119 932.447571,37.026428 
	C916.463928,40.444290 900.535767,44.123470 884.595886,47.743820 
	C841.218262,57.595989 798.626648,70.241531 756.750366,85.132095 
	C730.145630,94.592308 703.734375,104.744438 677.793091,115.882858 
	C649.244019,128.141022 621.052368,141.320068 593.222168,155.139435 
	C564.914917,169.195633 537.621216,185.315720 509.164185,199.040146 
	C486.066437,210.179840 462.079834,219.563644 438.158295,228.881180 
	C418.011810,236.728333 397.581512,243.970596 376.936127,250.383789 
	C346.989014,259.686432 316.848083,268.433319 285.918671,274.055298 
	C267.877258,277.334625 249.908218,281.066864 231.796188,283.885986 
	C217.271729,286.146729 202.591370,287.438232 187.960083,288.967560 
	C179.631317,289.838074 171.262238,290.322754 162.455688,290.540894 
	C162.000198,289.122742 162.000305,288.144867 162.000397,287.166992 
	C176.273010,286.109894 190.611542,285.591705 204.801102,283.855835 
	C221.584732,281.802612 238.343277,279.219971 254.926834,275.929993 
	C281.453949,270.667389 308.134460,265.754028 334.185913,258.629852 
	C364.061127,250.460037 393.553802,240.699738 422.774170,230.387863 
	C445.898529,222.227264 468.558838,212.644974 491.054413,202.843033 
	C509.321136,194.883728 527.228943,186.033173 544.951416,176.908691 
	C570.177246,163.921051 594.788147,149.715561 620.207520,137.132980 
	C653.094604,120.853935 686.796509,106.309296 721.370300,93.896141 
	C742.187012,86.422241 762.766296,78.146530 783.918152,71.778496 
	C819.950256,60.930546 856.199219,50.715771 892.648865,41.373730 
	C915.543274,35.505909 938.918457,31.439760 962.174866,27.082626 
	C980.550415,23.639915 999.050171,20.830532 1017.538330,18.027004 
	C1034.302124,15.484984 1051.099121,13.122026 1067.929932,11.078525 
	C1079.324951,9.695004 1090.805542,9.022804 1102.244385,7.993520 
	C1116.784058,6.685219 1131.304321,5.115942 1145.863037,4.082289 
	C1156.095337,3.355806 1166.379883,3.386504 1176.635498,2.948917 
	C1178.332642,2.876503 1180.001343,2.134950 1181.341553,1.351315 
	C1196.020874,1.000000 1211.041870,1.000000 1226.445435,1.306976 
	C1225.885376,2.687113 1224.942627,3.760274 1223.999878,4.833427 
z"/>
<path fill="#FCD800" opacity="1.000000" stroke="none" 
	d="
M1318.531372,1.000003 
	C1319.792114,1.665335 1320.548584,2.856878 1321.381958,2.913288 
	C1328.460205,3.392442 1335.555786,3.604303 1342.639526,4.011610 
	C1359.407715,4.975765 1376.195435,5.719200 1392.931519,7.087970 
	C1408.575562,8.367434 1424.204346,10.024248 1439.765015,12.081697 
	C1459.930054,14.747924 1480.069092,17.685648 1500.130859,21.036367 
	C1524.289795,25.071383 1548.381104,29.529264 1572.447632,34.089199 
	C1580.364990,35.589325 1588.134277,37.903996 1595.921143,40.029263 
	C1597.260376,40.394768 1598.348022,41.681519 1599.164673,43.418373 
	C1488.667236,18.088411 1376.919434,6.121175 1263.525391,4.581903 
	C1263.415527,3.121973 1263.707764,2.060983 1264.000000,0.999997 
	C1282.020874,1.000000 1300.041870,1.000000 1318.531372,1.000003 
z"/>
<path fill="#FCD800" opacity="1.000000" stroke="none" 
	d="
M1601.000000,129.600006 
	C1588.187256,127.275276 1575.392212,124.462944 1562.557007,121.848785 
	C1547.632935,118.809189 1532.715088,115.707611 1517.718384,113.064964 
	C1501.070068,110.131256 1484.365479,107.477684 1467.629150,105.096519 
	C1455.661987,103.393890 1443.604858,102.317879 1431.583252,101.004326 
	C1416.137573,99.316658 1400.705200,97.474022 1385.233154,96.073624 
	C1374.086426,95.064713 1362.890259,94.530273 1351.705078,94.031891 
	C1334.036499,93.244606 1316.359253,92.643867 1298.684326,92.005531 
	C1288.100098,91.623291 1277.513184,91.319756 1266.520630,90.594635 
	C1266.409302,89.194496 1266.704834,88.180565 1267.000366,87.166634 
	C1284.583130,87.446045 1302.170898,87.551598 1319.746704,88.065582 
	C1331.605103,88.412346 1343.460938,89.145416 1355.291748,90.048538 
	C1370.005981,91.171745 1384.691040,92.673920 1399.393066,93.962349 
	C1407.734985,94.693398 1416.111816,95.096375 1424.426147,96.053627 
	C1436.899048,97.489677 1449.332764,99.269493 1461.779663,100.928505 
	C1471.800537,102.264145 1481.841309,103.476974 1491.828857,105.030334 
	C1508.210205,107.578133 1524.626709,109.990189 1540.897217,113.137276 
	C1559.325195,116.701683 1577.609375,121.011093 1595.954712,125.002625 
	C1597.368652,125.310280 1598.772095,125.665825 1600.590210,125.999542 
	C1601.000000,127.066673 1601.000000,128.133347 1601.000000,129.600006 
z"/>
<path fill="#FCD800" opacity="1.000000" stroke="none" 
	d="
M1267.000244,131.166626 
	C1284.583130,131.446045 1302.170898,131.551605 1319.746704,132.065582 
	C1331.605103,132.412354 1343.460938,133.145401 1355.291748,134.048523 
	C1370.005981,135.171738 1384.691040,136.673935 1399.393066,137.962357 
	C1407.734985,138.693405 1416.111816,139.096405 1424.426147,140.053650 
	C1436.899048,141.489670 1449.332764,143.269470 1461.779663,144.928497 
	C1471.800537,146.264145 1481.841309,147.476944 1491.828857,149.030304 
	C1508.210205,151.578140 1524.626587,153.990219 1540.897095,157.137283 
	C1559.325195,160.701675 1577.609253,165.011139 1595.954712,169.002670 
	C1597.368652,169.310287 1598.772095,169.665817 1600.590210,169.999542 
	C1601.000000,171.066666 1601.000000,172.133347 1601.000000,173.600006 
	C1588.187256,171.275284 1575.392212,168.462952 1562.557007,165.848801 
	C1547.632935,162.809219 1532.715088,159.707642 1517.718384,157.064957 
	C1501.070068,154.131241 1484.365601,151.477692 1467.629272,149.096527 
	C1455.662109,147.393875 1443.604858,146.317871 1431.583252,145.004333 
	C1416.137573,143.316666 1400.705322,141.474045 1385.233276,140.073639 
	C1374.086426,139.064728 1362.890381,138.530289 1351.705078,138.031906 
	C1334.036499,137.244629 1316.359253,136.643875 1298.684326,136.005539 
	C1288.100098,135.623306 1277.513184,135.319763 1266.520508,134.594620 
	C1266.409180,133.194473 1266.704712,132.180542 1267.000244,131.166626 
z"/>
<path fill="#000000" opacity="1.000000" stroke="none" 
	d="
M1.000002,404.469696 
	C20.161758,408.326874 39.234215,413.122620 58.520462,416.795807 
	C69.216476,418.832947 80.272720,418.964233 91.157745,420.043793 
	C92.362396,420.163269 93.508781,420.870239 94.341095,421.652374 
	C63.123272,422.000000 32.246544,422.000000 1.000000,422.000000 
	C1.000000,416.318481 1.000000,410.628967 1.000002,404.469696 
z"/>
<path fill="#FCD800" opacity="1.000000" stroke="none" 
	d="
M121.999420,333.833405 
	C107.246574,332.900665 92.462524,332.303284 77.750328,330.933807 
	C64.946442,329.742035 52.129219,328.189972 39.491695,325.856049 
	C26.814821,323.514771 14.352921,320.009491 1.398403,317.007202 
	C1.000000,315.933319 1.000000,314.866669 1.000001,313.399994 
	C20.469706,317.004181 39.841557,321.606354 59.441685,324.813507 
	C73.779526,327.159576 88.427193,327.575745 102.917030,329.046570 
	C109.030861,329.667145 115.093956,330.787567 121.578728,332.106812 
	C121.984695,332.966400 121.992058,333.399902 121.999420,333.833405 
z"/>
<path fill="#FCD800" opacity="1.000000" stroke="none" 
	d="
M1.000000,271.399994 
	C38.378456,281.473175 76.529907,286.800385 115.534973,287.969238 
	C115.705933,288.681885 115.917778,289.260040 115.966255,289.851562 
	C116.016090,290.459686 115.906471,291.080841 115.832878,292.217682 
	C107.007996,291.476868 98.537483,290.749542 90.063835,290.060760 
	C85.311943,289.674500 80.518204,289.613281 75.806953,288.952118 
	C61.147858,286.894928 46.455421,284.970123 31.900484,282.311920 
	C21.759901,280.459930 11.824094,277.486694 1.398405,275.007202 
	C1.000000,273.933319 1.000000,272.866669 1.000000,271.399994 
z"/>
<path fill="#FCD800" opacity="1.000000" stroke="none" 
	d="
M1263.531372,0.999997 
	C1263.707764,2.060983 1263.415527,3.121973 1263.062012,4.508121 
	C1253.975952,4.882533 1244.951416,4.931787 1235.463379,4.601645 
	C1235.000000,3.814835 1235.000000,3.407421 1235.000000,2.666672 
	C1235.000000,1.888892 1235.000000,1.444446 1235.000000,1.000000 
	C1244.354248,1.000000 1253.708496,1.000000 1263.531372,0.999997 
z"/>
<path fill="#FCD800" opacity="1.000000" stroke="none" 
	d="
M1235.000000,2.999998 
	C1235.000000,3.407421 1235.000000,3.814835 1235.000000,4.527809 
	C1231.635254,4.882478 1228.270752,4.931587 1224.453003,4.907065 
	C1224.942627,3.760274 1225.885376,2.687113 1226.914062,1.306976 
	C1228.714355,1.000000 1230.428711,1.000000 1232.648804,1.297761 
	C1233.769653,2.063678 1234.384888,2.531834 1235.000000,2.999998 
z"/>
<path fill="#FCD800" opacity="1.000000" stroke="none" 
	d="
M1235.000000,2.666664 
	C1234.384888,2.531834 1233.769653,2.063678 1233.077271,1.297761 
	C1233.444458,1.000000 1233.888916,1.000000 1234.666748,1.000000 
	C1235.000000,1.444446 1235.000000,1.888892 1235.000000,2.666664 
z"/>
<path fill="#FCD800" opacity="1.000000" stroke="none" 
	d="
M1223.999878,46.833427 
	C1210.744629,47.222370 1197.481445,47.435688 1184.236206,48.043011 
	C1166.116089,48.873859 1148.001099,49.874374 1129.900269,51.053272 
	C1118.440186,51.799671 1106.989258,52.813610 1095.571411,54.051418 
	C1082.260132,55.494499 1068.993774,57.346958 1055.700195,58.957439 
	C1044.180542,60.352993 1032.616699,61.425049 1021.132690,63.062347 
	C1006.315125,65.174911 991.514648,67.470718 976.785950,70.126289 
	C961.951904,72.800842 947.185059,75.874130 932.443115,79.026794 
	C916.459412,82.445045 900.531555,86.126854 884.591248,89.746010 
	C841.211975,99.594978 798.620544,112.243637 756.743225,127.133057 
	C730.137756,136.592575 703.727356,146.748474 677.785522,157.887054 
	C649.236084,170.145279 621.042664,183.321426 593.212341,197.141159 
	C564.904785,211.197861 537.612549,227.322189 509.155029,241.046738 
	C486.057098,252.186432 462.067902,261.564972 438.145966,270.882477 
	C417.999054,278.729675 397.570679,285.978546 376.924896,292.391022 
	C346.976837,301.692780 316.833771,310.434845 285.903656,316.056152 
	C267.861938,319.335144 249.892609,323.067139 231.780334,325.886139 
	C217.255615,328.146759 202.572235,329.409821 187.944458,330.977203 
	C180.278992,331.798615 172.581680,332.322632 164.357513,332.625610 
	C162.877502,332.458038 161.938736,332.645813 160.999954,332.833588 
	C159.930649,332.882690 158.861359,332.931763 157.395920,332.539917 
	C156.985992,331.361481 156.972214,330.624023 156.958435,329.886566 
	C157.987625,329.591370 159.001617,329.116364 160.048294,329.027924 
	C176.243530,327.659424 192.454208,326.463898 208.639069,324.984894 
	C239.784180,322.138702 270.412231,316.097534 300.770752,308.873352 
	C323.236908,303.527252 345.693512,297.842163 367.662903,290.779388 
	C398.535858,280.854187 429.409271,270.636017 459.434784,258.453766 
	C488.354492,246.720139 516.447998,232.837540 544.437927,218.958282 
	C569.987671,206.289032 594.620422,191.768616 620.185547,179.132736 
	C653.076721,162.875839 686.770447,148.331528 721.335388,135.911133 
	C741.693542,128.595718 761.795105,120.421150 782.483765,114.202477 
	C818.977173,103.233109 855.682678,92.885155 892.589172,83.405281 
	C915.476196,77.526482 938.869385,73.583923 962.088989,69.046646 
	C977.069153,66.119392 992.109375,63.450260 1007.191406,61.108337 
	C1020.248230,59.080887 1033.401855,57.676495 1046.512817,55.998440 
	C1059.465210,54.340683 1072.400513,52.529667 1085.376465,51.083279 
	C1094.026733,50.119064 1102.735718,49.683865 1111.417358,48.997860 
	C1128.120850,47.677990 1144.823608,46.347775 1161.526855,45.024887 
	C1161.858398,44.998631 1162.192993,45.013165 1162.526001,45.002338 
	C1172.784302,44.668697 1183.042358,44.322937 1193.301147,44.003052 
	C1204.225830,43.662392 1215.151367,43.346096 1226.441040,43.386551 
	C1225.870361,44.780434 1224.935059,45.806931 1223.999878,46.833427 
z"/>
<path fill="#FCD800" opacity="1.000000" stroke="none" 
	d="
M1264.000366,43.166618 
	C1281.586182,43.446060 1299.177002,43.551636 1316.755859,44.065620 
	C1328.616211,44.412395 1340.474243,45.145279 1352.307007,46.048584 
	C1367.023926,47.172066 1381.711304,48.675045 1396.416016,49.963589 
	C1404.759277,50.694691 1413.137939,51.094662 1421.453369,52.054173 
	C1433.927490,53.493557 1446.361450,55.283821 1458.809937,56.943306 
	C1468.833008,58.279476 1478.878174,59.479095 1488.868042,61.031376 
	C1505.252686,63.577301 1521.671387,65.993034 1537.945068,69.140144 
	C1556.377075,72.704643 1574.676636,76.963020 1593.001099,81.065407 
	C1595.284546,81.576630 1597.368530,82.978470 1599.544922,83.967644 
	C1599.296021,84.740807 1599.046997,85.513962 1598.798096,86.287125 
	C1488.672363,60.091572 1376.919312,48.121338 1263.520630,46.594624 
	C1263.409302,45.194473 1263.704834,44.180542 1264.000366,43.166618 
z"/>
<path fill="#FCD800" opacity="1.000000" stroke="none" 
	d="
M1263.536865,43.092834 
	C1263.704834,44.180542 1263.409302,45.194473 1263.057129,46.520844 
	C1253.975952,46.882538 1244.951416,46.931793 1235.463379,46.601650 
	C1235.000000,45.814835 1235.000000,45.407417 1235.000000,44.694450 
	C1235.000000,43.981495 1235.000000,43.574093 1235.000122,43.166691 
	C1244.357910,43.117481 1253.715576,43.068272 1263.536865,43.092834 
z"/>
<path fill="#FCD800" opacity="1.000000" stroke="none" 
	d="
M1266.536865,87.092857 
	C1266.704834,88.180565 1266.409302,89.194496 1266.057129,90.520851 
	C1256.975952,90.882530 1247.951416,90.931786 1238.463379,90.601639 
	C1238.000000,89.814827 1238.000000,89.407417 1238.000000,88.694443 
	C1238.000000,87.981491 1238.000000,87.574089 1238.000122,87.166687 
	C1247.357910,87.117485 1256.715576,87.068275 1266.536865,87.092857 
z"/>
<path fill="#FCD800" opacity="1.000000" stroke="none" 
	d="
M161.567902,287.093292 
	C162.000305,288.144867 162.000198,289.122742 162.000244,290.467316 
	C154.967499,291.216339 147.934616,291.598663 140.342438,291.691986 
	C139.851532,290.657471 139.919907,289.911957 139.988281,289.166473 
	C147.037323,288.450836 154.086349,287.735199 161.567902,287.093292 
z"/>
<path fill="#FCD800" opacity="1.000000" stroke="none" 
	d="
M139.608551,288.964935 
	C139.919907,289.911957 139.851532,290.657471 139.880524,291.618225 
	C134.840164,291.888977 129.699677,292.055145 124.566460,291.927979 
	C123.148933,291.892883 121.753044,290.984131 119.740540,290.257019 
	C123.729309,287.716370 133.423279,287.219910 139.608551,288.964935 
z"/>
<path fill="#FCD800" opacity="1.000000" stroke="none" 
	d="
M122.461960,333.907135 
	C121.992058,333.399902 121.984695,332.966400 121.968582,332.207855 
	C123.503258,331.255249 125.017113,330.193878 126.595970,330.086304 
	C130.406860,329.826599 134.248123,330.012543 138.538574,330.458740 
	C139.000000,331.876862 138.999985,332.854950 138.999969,333.833069 
	C133.641479,333.882324 128.282990,333.931610 122.461960,333.907135 
z"/>
<path fill="#FCD800" opacity="1.000000" stroke="none" 
	d="
M1235.000000,45.000015 
	C1235.000000,45.407417 1235.000000,45.814835 1235.000000,46.527813 
	C1231.635254,46.882481 1228.270752,46.931591 1224.453003,46.907063 
	C1224.935059,45.806931 1225.870361,44.780434 1226.902588,43.460388 
	C1228.717041,43.117802 1230.434448,43.068764 1232.661255,43.374794 
	C1233.780396,44.153248 1234.390259,44.576637 1235.000000,45.000015 
z"/>
<path fill="#FCD800" opacity="1.000000" stroke="none" 
	d="
M1238.000000,89.000000 
	C1238.000000,89.407417 1238.000000,89.814827 1238.000000,90.527809 
	C1234.635254,90.882477 1231.270752,90.931587 1227.453003,90.907059 
	C1227.935059,89.806923 1228.870361,88.780434 1229.902588,87.460396 
	C1231.717041,87.117805 1233.434448,87.068771 1235.661133,87.374817 
	C1236.780396,88.153267 1237.390137,88.576630 1238.000000,89.000000 
z"/>
<path fill="#FCD800" opacity="1.000000" stroke="none" 
	d="
M139.432724,333.906738 
	C138.999985,332.854950 139.000000,331.876862 138.999985,330.532471 
	C141.703949,330.117096 144.407928,330.068024 147.471481,330.383453 
	C147.220551,331.776367 146.610046,332.804779 145.999542,333.833191 
	C143.954849,333.882263 141.910156,333.931335 139.432724,333.906738 
z"/>
<path fill="#FCD800" opacity="1.000000" stroke="none" 
	d="
M146.423645,333.906799 
	C146.610046,332.804779 147.220551,331.776367 147.915039,330.457153 
	C149.716660,330.117218 151.434296,330.068054 153.576080,330.459900 
	C154.014038,331.638489 154.027847,332.376007 154.041641,333.113556 
	C151.643677,333.402496 149.245712,333.691467 146.423645,333.906799 
z"/>
<path fill="#FCD800" opacity="1.000000" stroke="none" 
	d="
M154.410583,333.062866 
	C154.027847,332.376007 154.014038,331.638489 154.000061,330.533661 
	C154.740143,330.106842 155.480408,330.047333 156.589539,329.937195 
	C156.972214,330.624023 156.985992,331.361481 157.000000,332.466187 
	C156.259979,332.893036 155.519760,332.952606 154.410583,333.062866 
z"/>
<path fill="#FCD800" opacity="1.000000" stroke="none" 
	d="
M161.371384,332.907043 
	C161.938736,332.645813 162.877502,332.458038 163.908066,332.551941 
	C163.247498,332.882568 162.495163,332.931549 161.371384,332.907043 
z"/>
<path fill="#FCD800" opacity="1.000000" stroke="none" 
	d="
M1238.000000,88.694443 
	C1237.390137,88.576630 1236.780396,88.153267 1236.085205,87.448410 
	C1236.446045,87.118507 1236.892212,87.070084 1237.669312,87.094177 
	C1238.000000,87.574089 1238.000000,87.981491 1238.000000,88.694443 
z"/>
<path fill="#FCD800" opacity="1.000000" stroke="none" 
	d="
M1235.000000,44.694466 
	C1234.390259,44.576637 1233.780396,44.153248 1233.085205,43.448395 
	C1233.446045,43.118515 1233.892212,43.070099 1234.669312,43.094189 
	C1235.000000,43.574093 1235.000000,43.981495 1235.000000,44.694466 
z"/>
<path fill="#FCD800" opacity="1.000000" stroke="none" 
	d="
M1266.536865,131.092834 
	C1266.704712,132.180542 1266.409180,133.194473 1266.057129,134.520844 
	C1256.975952,134.882538 1247.951416,134.931778 1238.463379,134.601654 
	C1238.000000,133.814835 1238.000000,133.407425 1238.000000,132.694443 
	C1238.000000,131.981491 1238.000000,131.574081 1238.000122,131.166687 
	C1247.357910,131.117477 1256.715576,131.068283 1266.536865,131.092834 
z"/>
<path fill="#FCD800" opacity="1.000000" stroke="none" 
	d="
M1238.000000,133.000000 
	C1238.000000,133.407425 1238.000000,133.814835 1238.000000,134.527802 
	C1234.635254,134.882462 1231.270752,134.931564 1227.453003,134.907043 
	C1227.935059,133.806915 1228.870361,132.780411 1229.902588,131.460358 
	C1231.717041,131.117798 1233.434448,131.068756 1235.661133,131.374786 
	C1236.780396,132.153244 1237.390137,132.576630 1238.000000,133.000000 
z"/>
<path fill="#FCD800" opacity="1.000000" stroke="none" 
	d="
M1238.000000,132.694443 
	C1237.390137,132.576630 1236.780396,132.153244 1236.085205,131.448395 
	C1236.446045,131.118500 1236.892212,131.070084 1237.669312,131.094177 
	C1238.000000,131.574081 1238.000000,131.981491 1238.000000,132.694443 
z"/>
</svg>